<svg height="557" viewBox="0 0 1057.99365 557" width="1057.99365" xmlns="http://www.w3.org/2000/svg"><path d="m1000.12219 420.11243-100.12536 47.38757 88.61529-66.2619a500.05588 500.05588 0 0 0 -48.38385-63.66846l-434.23144 107.93036 392.23339-149.62354a499.98052 499.98052 0 0 0 -56.95764-43.41418l-661.6665 106.57715a495.88009 495.88009 0 0 0 -108.60291 309.46057h995.98731a495.6132 495.6132 0 0 0 -66.86829-248.38757z" fill="#f2f2f2" transform="translate(-71.00317 -171.5)"/><path d="m787.12 221.69537a495.97179 495.97179 0 0 0 -218.12317-50.19537c-153.82965 0-291.36139 69.75269-382.71033 179.34869 156.42639-34.27447 428.77722-93.60553 600.8335-129.15332z" fill="#f2f2f2" transform="translate(-71.00317 -171.5)"/><path d="m1066.99683 666.5c0 15.464-143.7166 62-321 62s-321-46.536-321-62 143.71659 6 321 6 321-21.464 321-6z" fill="#3f3d56" transform="translate(-71.00317 -171.5)"/><path d="m1066.99683 666.5c0 15.464-143.7166 62-321 62s-321-46.536-321-62 143.71659 6 321 6 321-21.464 321-6z" opacity=".1" transform="translate(-71.00317 -171.5)"/><ellipse cx="674.99365" cy="495" fill="#3f3d56" rx="321" ry="28"/><path d="m656.64413 438.62638s12.91086 20.47705 8.29993 26.02136 34.59341 5.68291 34.59341 5.68291-5.88892-29.78793-4.15568-36.64328z" fill="#ffb8b8" transform="translate(-71.00317 -171.5)"/><path d="m656.64413 438.62638s12.91086 20.47705 8.29993 26.02136 34.59341 5.68291 34.59341 5.68291-5.88892-29.78793-4.15568-36.64328z" opacity=".1" transform="translate(-71.00317 -171.5)"/><circle cx="606.27433" cy="234.063" fill="#ff6584" r="40.48447"/><path d="m701.494 453.5v24l24-5-2-17z" fill="#ffb8b8"/><path d="m857.49683 629 67 11-17 25s-47-16-59-16 9-20 9-20z" fill="#ffb8b8" transform="translate(-71.00317 -171.5)"/><path d="m705.49683 581s50-58 66-55 23 21 23 21l9 89s-32 3-32 0-6-67-6-67-47 104-72 35z" fill="#2f2e41" transform="translate(-71.00317 -171.5)"/><path d="m624.49683 620s1 50 31 53 63-20 63-20l54-25.87008s64 33.87008 83 24.87008c0 0 20-21 7-27s-1 0-1 0l-77-40s-15-4-41 7-61 16-61 16z" fill="#2f2e41" transform="translate(-71.00317 -171.5)"/><circle cx="603.49365" cy="247.5" fill="#ffb8b8" r="30"/><path d="m717.49683 503-2 42s1 55-8 59c-4.55 2.02-13.69 6.08-22.14 10.52-6.34 3.32-12.29 6.84-15.61 9.87a11.19431 11.19431 0 0 0 -2.25 2.61c-4 7-30 6-36 1s-2 6-7 8c-4.84 1.94-11.55-13.92-7.44-37.6.13-.79.28-1.59.44-2.4 4.59-22.95-2.62-77.92-1.51-99.16a37.36888 37.36888 0 0 1 .51-4.84c3-16 41.28-48.56 48.44-34.69 8.82 17.12 29.08 1.48 32.56-6.31 20-1 27 23 27 23z" fill="#3f3d56" transform="translate(-71.00317 -171.5)"/><path d="m798.49683 640s-16 6-21 5-10 3-10 9-6 20 3 21 46-1 54 2c0 0 36 1 33-14s-18-14-18-14-41-2-41-9z" fill="#2f2e41" transform="translate(-71.00317 -171.5)"/><path d="m915.49683 643s2-6 5-6 27 4 30 3 38-3 32 14-26 19-26 19-36-4-41-3-23 0-20-5 22-14 20-22z" fill="#2f2e41" transform="translate(-71.00317 -171.5)"/><path d="m824.47088 499.36345 5.48617 22.63046a1.41354 1.41354 0 0 1 -.02746.76382l-24.88642 77.77a1.4135 1.4135 0 0 1 -2.75071-.2712l-3.44274-30.29616a1.41351 1.41351 0 0 1 .06051-.59751l22.843-70.10435a1.4135 1.4135 0 0 1 2.71765.10494z" fill="#d0cde1" transform="translate(-71.00317 -171.5)"/><path d="m751.45 329.775 5.065 19.416-21.95 70.913-5.065-21.949z" fill="#f2f2f2"/><path d="m711.862 606.80006c.84421 2.53261 87.79721-.8442 88.64141-1.68841a18.32436 18.32436 0 0 0 1.85721-3.37681c.7936-1.68841 1.51961-3.37682 1.51961-3.37682l-3.37682-27.33532-86.1088-3.056s-2.15276 23.165-2.59176 33.76816a25.33138 25.33138 0 0 0 .05915 5.0652z" fill="#d0cde1" transform="translate(-71.00317 -171.5)"/><path d="m718.526 403.22 1.688 23.638h-37.989v-23.638z" opacity=".1"/><path d="m669.562 410.818.227-.045-1.071 10.176h-21.106v-10.131z" opacity=".1"/><path d="m711.862 606.80006c.84421 2.53261 87.79721-.8442 88.64141-1.68841a18.32436 18.32436 0 0 0 1.85721-3.37681h-90.55775a25.33138 25.33138 0 0 0 .05913 5.06522z" opacity=".1" transform="translate(-71.00317 -171.5)"/><path d="m698.40919 333.5a22.12987 22.12987 0 0 1 -12.76894 8.778c-8.929 2.391-.07293 15.80887-.07293 15.80887s-3.22041-4.87923 1.42459-10.04646 12.11999-8.69992 11.41728-14.54041z" fill="#ff6584" transform="translate(-71.00317 -171.5)"/><circle cx="612.98182" cy="189.80566" fill="#ff6584" r="11.28256"/><path d="m698.38979 370.7623c-9.19775-3.47892-24.51282-5.2429-32.392-4.03709l1.0806-7.8905c7.57488 3.91493 22.81967 5.7547 32.392 4.03709z" fill="#3f3d56" transform="translate(-71.00317 -171.5)"/><path d="m680.59215 373.5867s-11.52728 19.17376-38.3321 26.35147-.219 47.45791-.219 47.45791-9.66758-14.64735 4.27659-30.15928 36.38403-26.11707 34.27451-43.6501z" fill="#ff6584" transform="translate(-71.00317 -171.5)"/><path d="m681.507 372.42157s11.07394 26.336 23.2314 28.82592 11.23534 44.10345-7.777 50.34359c0 0 13.86347-24.39564 2.01338-40.75671s-19.33518-29.2947-17.46778-38.4128z" fill="#ff6584" transform="translate(-71.00317 -171.5)"/><path d="m685.35681 614.52c-2.47 4.67-5.37 9.52-5.86 11.48-.33 1.33-3.99.56-9.75-1.61-11.55-4.37-31.57-14.38-50.25-24.39a15.775 15.775 0 0 1 -2.44-1.6c.13-.79.28-1.59.44-2.4 4.59-22.95-2.62-77.92-1.51-99.16l8.51-2.84 17 16v68s44 24 47 26c1.53005 1.02-.58 5.67-3.14 10.52z" opacity=".1" transform="translate(-71.00317 -171.5)"/><path d="m722.49683 560 27 14s16-17 26-4-29 17-29 17-34-8-35-19 11-8 11-8z" fill="#ffb8b8" transform="translate(-71.00317 -171.5)"/><path d="m677.49683 597 16 4s18-22 37-14-24 24-24 24-23 12-32 2 3-16 3-16z" fill="#ffb8b8" transform="translate(-71.00317 -171.5)"/><path d="m712.49683 465c1 1 12 9 12 9s3 38-1 46-7 8-4 12 7 1 3 8-8 6-5 9 2 4 2 4l12 10s-7.3623 11.72633-16.68115 10.86317-17.31885-45.86317-17.31885-45.86317z" fill="#3f3d56" transform="translate(-71.00317 -171.5)"/><path d="m624.49683 489-9 3s-24 88 4 103 59 30 60 26 12-20 9-22-47-26-47-26v-68z" fill="#3f3d56" transform="translate(-71.00317 -171.5)"/><path d="m566.994 354-2 48 53 25-49-25z" opacity=".1"/><path d="m1084.09713 633.143c-20.15507 11.88443-28.08825 35.77412-28.08825 35.77412s24.74464 4.62122 44.8997-7.26321 28.08825-35.77412 28.08825-35.77412-24.74464-4.62119-44.8997 7.26321z" fill="#3f3d56" transform="translate(-71.00317 -171.5)"/><g fill="#7b78df"><path d="m1091.15958 640.51126c-11.28676 20.49574-34.9329 29.12782-34.9329 29.12782s-5.34669-24.59808 5.94007-45.09382 34.9329-29.12782 34.9329-29.12782 5.34669 24.59809-5.94007 45.09382z" transform="translate(-71.00317 -171.5)"/><circle cx="21.99365" cy="228" r="4"/><circle cx="32.99365" cy="228" r="4"/><circle cx="43.99365" cy="228" r="4"/><path d="m78.99365 378.87255h58v6h-58z" opacity=".3"/><path d="m78.99365 391.87255h54.86486v6h-54.86486z" opacity=".3"/><path d="m78.99365 404.87255h39.97297v6h-39.97297z" opacity=".3"/><g opacity=".3"><path d="m213.99365 378.87255h58v6h-58z"/><path d="m213.99365 391.87255h54.86486v6h-54.86486z"/><path d="m213.99365 404.87255h39.97297v6h-39.97297z"/><path d="m213.99365 378.87255h58v6h-58z" opacity=".3"/><path d="m213.99365 391.87255h54.86486v6h-54.86486z" opacity=".3"/><path d="m213.99365 404.87255h39.97297v6h-39.97297z" opacity=".3"/></g><path d="m353.99365 378.87255h58v6h-58z" opacity=".3"/><path d="m353.99365 391.87255h54.86486v6h-54.86486z" opacity=".3"/><path d="m353.99365 404.87255h39.97297v6h-39.97297z" opacity=".3"/><path d="m70.99365 300.87255h74v66h-74z" opacity=".3"/></g><path d="m205.99365 300.87255h74v66h-74z" fill="#3f3d56"/><path d="m345.99365 300.87255h74v66h-74z" fill="#3f3d56"/><path d="m304.35546 538.09512-.97627-.01907c.021-1.08114.63114-26.56133 10.66219-33.604l.56059.79893c-9.62634 6.75857-10.24175 32.56434-10.24651 32.82414z" fill="#7b78df" transform="translate(-71.00317 -171.5)"/><circle cx="248.19984" cy="327.76848" fill="#7b78df" r="4.88134"/><path d="m318.2161 516.50423a15.19762 15.19762 0 0 1 -7.84148.33859 13.85016 13.85016 0 0 1 14.23984-4.88441 15.19753 15.19753 0 0 1 -6.39836 4.54582z" fill="#7b78df" transform="translate(-71.00317 -171.5)"/><path d="m444.35546 538.09512-.97627-.01907c.021-1.08114.63114-26.56133 10.66219-33.604l.56059.79893c-9.62634 6.75857-10.24175 32.56434-10.24651 32.82414z" fill="#7b78df" transform="translate(-71.00317 -171.5)"/><circle cx="388.19984" cy="327.76848" fill="#7b78df" r="4.88134"/><path d="m458.2161 516.50423a15.19762 15.19762 0 0 1 -7.84148.33859 13.85016 13.85016 0 0 1 14.23984-4.88441 15.19753 15.19753 0 0 1 -6.39836 4.54582z" fill="#7b78df" transform="translate(-71.00317 -171.5)"/><path d="m555.99683 665.5h-479v-277h479zm-477-2h475v-273h-475z" fill="#2f2e41" transform="translate(-71.00317 -171.5)"/><path d="m6.99365 237.06494h477v2h-477z" fill="#2f2e41"/></svg>